# xmcd
#
# Track frame offsets:
#	150
#	20385
#	35144
#	54019
#	77984
#	96106
#	116243
#	136046
#	159036
#	174136
#	197268
#	213567
#	236412
#
# Disc length: 3517 seconds
# Revision: 0
# Processed by: cddbd v1.5.2PL0 Copyright (c) Steve Scherf et al.
# Submitted via: dBpowerAMP V12.0
#
DISCID=980dbb0d
DTITLE=Shemekia Copeland - Wicked (d-disc) [dBP-LITE-1-FLAC@]
DYEAR=2000
DGENRE=Blues
TTITLE0=It's 2am
TTITLE1=Not Tonight
TTITLE2=Love Scene
TTITLE3=The Other Woman
TTITLE4=Whole Lotta Water
TTITLE5=Beat Up Guitar
TTITLE6=Miss Hy Ciditty
TTITLE7=Up On 1-2-5
TTITLE8=Wild, Wild Woman
TTITLE9=The Fool You're Looking For
TTITLE10=If He Moves His Lips
TTITLE11=Steamy Windows
TTITLE12=It's My Own Tears
EXTD=
EXTT0=
EXTT1=
EXTT2=
EXTT3=
EXTT4=
EXTT5=
EXTT6=
EXTT7=
EXTT8=
EXTT9=
EXTT10=
EXTT11=
EXTT12=
PLAYORDER=
